<svg xmlns="http://www.w3.org/2000/svg" viewBox="0 0 483.33 231.11"><defs><style>.cls-1{isolation:isolate;}.cls-2{fill:#a58e81;}.cls-3{opacity:0.21;}.cls-3,.cls-6{mix-blend-mode:multiply;}.cls-4{fill:#212121;}.cls-5{fill:#6d594f;}.cls-6{opacity:0.12;}.cls-7{fill:#564640;}</style></defs><title>Asset 2</title><g class="cls-1"><g id="Layer_2" data-name="Layer 2"><g id="Layer_2-2" data-name="Layer 2"><path class="cls-2" d="M441.42,66.19a48.92,48.92,0,0,0-73.77-24.65,50.35,50.35,0,0,0-87.73,13.92,24.44,24.44,0,0,0-47.14-6.76,60.41,60.41,0,0,0-72.53-13.2A66.18,66.18,0,0,0,38.07,47.7,60.59,60.59,0,0,0,9.65,82h0v.11A60.2,60.2,0,0,0,8.38,115S-3.27,148.13.9,158.27C11,182.73,98.74,225.89,234,218.7s208.63-23,225.89-40.29S441.43,66.2,441.42,66.19Z"/><g class="cls-3"><path class="cls-4" d="M234,218.7c135.25-7.19,208.63-23,225.89-40.29S441.43,66.2,441.42,66.19a48.92,48.92,0,0,0-73.77-24.65,50.35,50.35,0,0,0-87.73,13.92,24.44,24.44,0,0,0-47.14-6.76s21.34,6,21.34,33.31,15.83,11.51,23,37.41S271.4,177,261.33,182.73,234,218.7,234,218.7Z"/></g><path class="cls-5" d="M208.09,145.32a43.16,43.16,0,0,0-37.42-42.77c0-.13,0-.26,0-.39a48.92,48.92,0,0,0-96.94-9.33,44.56,44.56,0,0,0-48.55,25.08h0S3.78,155.39,6.66,187s66.18,40.29,95,43.16,102.15-1.44,123.74-8.63S208.09,145.32,208.09,145.32Z"/><g class="cls-6"><path class="cls-4" d="M158.12,230.15c27.38-1.48,55.27-4.59,67.23-8.58,21.58-7.19-17.27-76.26-17.27-76.26a43.16,43.16,0,0,0-37.42-42.77c0-.13,0-.26,0-.39a48.92,48.92,0,0,0-96.94-9.33s25-5.06,33.63,16.52,36,20.14,34.53,40.29,17.27,28.78,11.51,48.92S136.12,231.34,158.12,230.15Z"/></g><path class="cls-7" d="M476.72,168.19c-4.17-1.14-7.21-1.9-9.43-2.41a38.18,38.18,0,0,0-38-34.61c-.62,0-1.24,0-1.85,0a34.71,34.71,0,0,0-64.09,18.46v0a34.71,34.71,0,0,0-17.08,25.79h0c-9,7.31-13.62,32.42-4.89,39,4.63,3.47,38.07,11.94,64.79-2.31,17.35-9.26,68.26-8.1,72.89-13.88C480.06,197,489.45,171.66,476.72,168.19Z"/></g></g></g></svg>