<svg xmlns="http://www.w3.org/2000/svg" viewBox="0 0 319 473.08"><defs><style>.cls-1{fill:#7d6352;}.cls-2{fill:#9e9285;}.cls-3{fill:#212121;}.cls-4{fill:#d6d6d6;}.cls-5{fill:#bd435a;}.cls-6{fill:none;stroke:#212121;stroke-miterlimit:10;stroke-width:2px;}</style></defs><title>Asset 1</title><g id="Layer_2" data-name="Layer 2"><g id="Layer_1-2" data-name="Layer 1"><path class="cls-1" d="M163.82,0C-20.92,0-.2,331.35,1.52,473.08H314C317.48,407.2,353.74,0,163.82,0Z"/><path class="cls-2" d="M156.72,291.79c-88.08,0-88.91,137.69-71.62,181.29H228.34C240.68,460.07,258,291.79,156.72,291.79Z"/><circle class="cls-3" cx="219.07" cy="131.22" r="27.62"/><circle class="cls-3" cx="103.39" cy="127.76" r="27.62"/><circle class="cls-4" cx="227.7" cy="131.22" r="12.09"/><circle class="cls-4" cx="110.3" cy="126.04" r="12.09"/><path class="cls-3" d="M175.9,174.38a15.54,15.54,0,0,1-31.08,0c0-8.58,7-5.18,15.54-5.18S175.9,165.8,175.9,174.38Z"/><path class="cls-5" d="M200.08,204.92c0,19.37-18.17,35.07-40.57,35.07s-40.57-15.7-40.57-35.07,18.17-11.69,40.57-11.69S200.08,185.55,200.08,204.92Z"/><rect class="cls-4" x="144.83" y="193.37" width="15.54" height="50.07"/><polygon class="cls-4" points="181.08 243.44 165.54 243.44 165.54 193.37 181.08 191.65 181.08 243.44"/><line class="cls-6" x1="169.16" y1="172.66" x2="224.5" y2="160.57"/><line class="cls-6" x1="169.16" y1="177.74" x2="233.4" y2="169.47"/><line class="cls-6" x1="166.61" y1="182.83" x2="220.68" y2="184.74"/><line class="cls-6" x1="150.71" y1="172.66" x2="95.37" y2="160.57"/><line class="cls-6" x1="150.71" y1="177.74" x2="86.46" y2="169.47"/><line class="cls-6" x1="153.25" y1="182.83" x2="99.19" y2="184.74"/></g></g></svg>